# xmcd CD database file
#
# Track frame offsets:
#	207
#	20052
#	43245
#	57530
#	90111
#	115893
#	140865
#	162055
#	181367
#	204132
#	218069
#	237754
#
# Disc length: 3316 seconds
#
# Revision: 2
# Processed by: cddbd v1.4PL0 Copyright (c) Steve Scherf et al.
# Submitted via: CDex 1.50beta10
#
DISCID=a30cf20c
DTITLE=Tom Principato - Really Blue
DYEAR=1998
DGENRE=Blues
TTITLE0=Every Minute, Every Hour
TTITLE1=Sweet Little Woman
TTITLE2=One For Danny
TTITLE3=Stranger's Eyes
TTITLE4=Walkin' Blues
TTITLE5=Really Blue
TTITLE6=Standing At The Cross Roads Again
TTITLE7=In Orbit
TTITLE8=Kansas City Blues
TTITLE9=Baby, Please
TTITLE10=In Another Dream
TTITLE11=Here, In My Heart...
EXTD=YEAR: 1998
EXTT0=
EXTT1=
EXTT2=
EXTT3=
EXTT4=
EXTT5=
EXTT6=
EXTT7=
EXTT8=
EXTT9=
EXTT10=
EXTT11=
PLAYORDER=
